<svg width="28" height="28" viewBox="0 0 28 28" fill="none" xmlns="http://www.w3.org/2000/svg">
<path d="M14.5632 0C15.0113 0.0601809 15.4617 0.10942 15.9076 0.182366C19.5518 0.780072 22.5524 2.49933 24.8794 5.37935C26.1447 6.94542 27.1173 8.66559 27.5795 10.6465C28.6935 15.4209 27.5773 19.6486 24.429 23.3534C22.546 25.5691 20.1026 26.8562 17.3161 27.5875C11.3654 29.1494 4.94468 26.1139 2.11453 21.2169C1.2828 19.7781 0.602413 18.2877 0.291991 16.6464C-0.714265 11.3322 0.894199 6.92262 4.90196 3.36055C6.58859 1.8615 8.52794 0.832958 10.7409 0.34604C11.3831 0.204706 12.028 0.0816089 12.6857 0.0424001C12.7529 0.0382969 12.8229 0.0414883 12.8825 0C13.4424 0 14.0033 0 14.5632 0ZM14.2382 27.5847C21.4416 27.411 27.6214 21.8598 27.6155 13.7673C27.6114 8.10572 22.9037 0.303184 13.6006 0.386161C5.82186 0.45546 0.383347 6.97368 0.388801 13.9223C0.394709 21.1987 6.42452 27.7224 14.2382 27.5847Z" fill="#E7E7E7"/>
<path d="M18.2576 9.17396C18.1917 9.19311 18.1458 9.13612 18.0704 9.12791C18.1018 9.30891 18.0177 9.32943 17.8722 9.26788C17.7713 9.22502 17.6659 9.19357 17.5577 9.15573C17.6432 9.06181 17.7709 9.24007 17.8636 9.09965C17.8831 9.13384 17.9168 9.19402 17.9554 9.26286C18.0472 9.14433 17.9386 9.09007 17.9868 9.02032C18.0781 8.99342 18.134 9.1156 18.2431 9.08597C18.1981 9.02123 18.1572 8.96287 18.1168 8.90497C18.1754 8.83476 18.2454 8.94099 18.3058 8.88673C18.1195 8.65285 17.8927 8.66014 17.66 8.7878C17.375 8.94372 17.3927 9.24736 17.3496 9.52274C17.3941 9.45207 17.4386 9.38186 17.4836 9.31119L17.505 9.31985C17.4718 9.43338 17.4286 9.54508 17.4068 9.66088C17.3573 9.92531 17.5082 10.078 17.7704 10.0448C18.049 10.0087 18.3145 9.92029 18.584 9.84826C18.6571 9.82866 18.7349 9.77896 18.878 9.84644C18.3676 9.94719 17.9609 10.2682 17.4532 10.1259C17.3791 10.1049 17.3587 10.1565 17.3305 10.1961C17.2296 10.3397 17.1696 10.4998 17.1391 10.7131C17.2964 10.6238 17.4264 10.5504 17.5559 10.477C17.1023 10.8805 16.7414 11.3469 16.4851 11.8926C16.3824 12.1114 16.2974 12.3385 16.2006 12.56C16.1556 12.6631 16.1792 12.6945 16.2938 12.716C16.5274 12.7602 16.7605 12.7616 16.9941 12.7415C17.0737 12.7347 17.1696 12.7187 17.2028 12.6293C17.2382 12.5336 17.125 12.5131 17.0787 12.4301C17.9422 12.6558 18.7331 12.4898 19.4839 12.0485C19.4293 12.2145 19.4057 12.2496 19.1948 12.3936C18.5785 12.8144 17.889 12.9685 17.1523 12.9458C16.7651 12.9334 16.3878 12.8559 16.0124 12.767C15.9043 12.7415 15.7956 12.7155 15.6806 12.8445C16.9246 13.2695 18.1368 13.507 19.3589 12.8468C18.9926 13.2663 18.5022 13.3839 17.9886 13.4655C18.5053 13.6875 19.0185 13.5553 19.5748 13.4126C19.378 13.6356 19.1326 13.6374 18.8962 13.7363C19.508 13.9232 19.9211 13.6292 20.3465 13.2056C20.1961 13.615 19.887 13.7509 19.5761 13.889C19.8152 14.0249 19.927 14.0021 20.4365 13.7185C20.4092 13.7927 20.3083 13.8985 20.1338 14.0358C20.4024 14.2355 20.6283 14.2159 21.0542 13.9538C21.081 14.0172 21.0228 14.05 21.0028 14.0947C20.9678 14.1726 20.9174 14.2574 21.0151 14.314C21.1051 14.3664 21.1973 14.365 21.2673 14.2551C21.3946 14.0573 21.5091 13.8535 21.6073 13.6397C22.9303 10.7564 22.1472 7.08085 19.7643 4.99002C19.6998 4.93349 19.6366 4.87468 19.5852 4.80219C19.9879 5.01328 20.3415 5.29366 20.6851 5.58363C22.779 7.35121 24.122 9.57152 24.6238 12.2751C24.9724 14.1521 24.7583 15.9858 24.0748 17.7648C24.0084 17.9376 24.0057 18.1961 23.8434 18.2558C23.7039 18.3069 23.5012 18.1865 23.3267 18.14C21.8468 17.7438 20.367 17.3494 18.8885 16.9478C18.7231 16.9026 18.6531 16.9314 18.6094 17.1083C18.5663 17.2838 18.6144 17.338 18.7794 17.3818C20.3261 17.7899 21.8709 18.2066 23.4162 18.6196C23.6784 18.6898 23.6789 18.6885 23.5544 18.9347C22.7976 20.4323 21.7323 21.6615 20.3542 22.6166C20.2933 22.659 20.2302 22.6978 20.1652 22.7402C20.1543 22.7156 20.1429 22.7019 20.1447 22.6909C20.2124 22.2428 20.212 22.2446 19.7629 22.1233C14.7735 20.7734 9.76991 19.4745 4.79181 18.0826C4.63137 18.0379 4.54638 18.0543 4.50774 18.233C4.47138 18.3999 4.40639 18.5604 4.34049 18.7669C4.07097 18.1642 3.86054 17.5865 3.68556 16.9961C3.3406 15.8326 3.15516 14.6504 3.24924 13.4308C3.26469 13.2307 3.32105 13.217 3.48695 13.2622C5.08132 13.6957 6.67751 14.1252 8.27371 14.5524C8.34825 14.5725 8.45505 14.6481 8.50141 14.5779C8.56458 14.4822 8.59367 14.3518 8.60004 14.2346C8.60413 14.1589 8.49823 14.1653 8.43505 14.1485C6.81022 13.7108 5.18631 13.2685 3.55875 12.8418C3.34968 12.7871 3.28424 12.7082 3.29878 12.4939C3.36332 11.5443 3.62647 10.6438 4.00598 9.78352C5.46673 6.46993 7.90829 4.29977 11.4565 3.44675C12.1487 3.28034 12.8541 3.19372 13.5663 3.17548C13.6086 3.17457 13.6513 3.18095 13.6963 3.19873C13.2191 3.33459 12.7401 3.45815 12.2787 3.63823C9.78036 4.61435 8.23916 6.43208 7.58651 9.02032C7.46425 9.50587 7.42971 10.0078 7.50606 10.5098C7.51879 10.5928 7.50061 10.7054 7.64196 10.7008C7.79421 10.6963 7.77421 10.5732 7.7783 10.4843C7.79467 10.1136 7.82057 9.74568 7.96101 9.39371C7.93965 9.70282 7.91374 10.011 7.92738 10.3206C7.9351 10.4911 7.96965 10.653 8.08963 10.7811C8.14645 10.8417 8.22735 10.9124 8.30597 10.8741C8.39551 10.8303 8.32097 10.7419 8.30416 10.6762C8.23825 10.4177 8.22371 10.1587 8.30507 9.89294C8.33097 10.1191 8.34915 10.3466 8.38506 10.5713C8.43187 10.8659 8.54277 10.9694 8.82592 11.0022C8.76911 10.8061 8.64003 10.6402 8.62458 10.43C8.81274 10.6703 8.89818 11.0026 9.25815 11.1285C9.20043 10.9525 9.08226 10.8262 9.12953 10.6188C9.30451 10.983 9.51539 11.273 9.95807 11.3263C9.69992 10.8326 9.3695 10.3976 9.30223 9.81179C9.69946 10.5951 10.0899 11.3386 10.9834 11.6026C10.673 11.1722 10.2194 10.8394 10.1121 10.2682C10.7507 11.3131 11.722 11.8283 12.8887 12.0408C12.1183 11.6961 11.3866 11.3049 10.9607 10.4751C11.337 10.6899 11.6752 10.8996 12.0474 11.0405C12.1465 11.0779 12.2446 11.1194 12.3528 11.1175C12.4101 11.1166 12.4828 11.1376 12.5119 11.066C12.5414 10.9935 12.4801 10.9561 12.431 10.9219C12.3192 10.8444 12.2024 10.7738 12.0915 10.6944C11.3779 10.1856 10.7971 9.57653 10.5898 8.6875C10.5762 8.6296 10.5703 8.56987 10.5748 8.50194C10.8062 8.91318 10.9589 9.38824 11.4747 9.60298C11.4788 9.42517 11.3466 9.34219 11.3357 9.21499C11.4179 9.17578 11.4475 9.29523 11.5361 9.25375C11.4934 9.05314 11.3643 8.88126 11.3316 8.66972C11.292 8.41577 11.4834 8.29131 11.5606 8.10438C11.6265 8.11213 11.6193 8.17186 11.6488 8.20013C12.0383 8.57124 12.106 8.99296 11.8565 9.47259C11.8042 9.57334 11.8011 9.70829 11.8424 9.80768C11.9815 10.1405 12.0133 10.5349 12.3605 10.7551C12.4164 10.7906 12.4605 10.8476 12.5046 10.8991C12.5614 10.9657 12.5937 11.0455 12.5537 11.1298C12.5137 11.2137 12.4296 11.1978 12.3542 11.2019C12.2928 11.2051 12.2056 11.1485 12.1751 11.2324C12.1497 11.3031 12.1933 11.3806 12.241 11.4412C12.3683 11.6026 12.5533 11.6747 12.7346 11.7508C12.786 11.7722 12.8223 11.759 12.8337 11.6997C12.9537 11.0678 13.1159 10.4364 12.9146 9.79309C12.8337 9.53505 12.6769 9.32168 12.4705 9.14524C12.4174 9.09965 12.3446 9.06864 12.3101 8.95011C12.6332 9.11104 12.84 9.33444 12.9964 9.65267C13.1173 9.3618 13.0464 9.09463 13.0796 8.78643C12.8291 8.9802 12.6646 8.85163 12.506 8.7185C12.2396 8.4951 12.0451 8.20651 11.7983 7.96533C11.812 7.95074 11.8261 7.93615 11.8397 7.92156C11.9438 8.02141 12.0492 8.11988 12.1515 8.22155C12.3069 8.37656 12.4519 8.54206 12.6346 8.6679C12.8541 8.8188 13.0682 8.74403 13.1459 8.48234C13.1755 8.38204 13.19 8.27672 13.2132 8.16411C13.2827 8.25301 13.2073 8.35468 13.2782 8.46364C13.3491 8.18554 13.5077 7.93387 13.37 7.6667C13.2477 7.43008 13.0468 7.28647 12.7482 7.39042C12.7669 7.46063 12.8569 7.42689 12.8864 7.49254C12.8455 7.55683 12.7705 7.5509 12.701 7.55774C12.7732 7.47841 12.6046 7.43464 12.6669 7.36808C12.8178 7.20532 12.5387 7.1228 12.6019 6.9801C12.5814 6.97873 12.5601 6.9728 12.541 6.97736C12.5128 6.98374 12.5423 7.09316 12.4692 7.02022C12.4514 7.00244 12.4396 6.96186 12.4469 6.93861C12.4628 6.88846 12.5064 6.91536 12.5419 6.91672C12.7632 6.92675 12.9746 6.7991 13.0396 6.62175C13.0518 6.58846 13.0482 6.55974 13.0218 6.54242C12.8764 6.44622 12.7314 6.33634 12.5414 6.41567C12.3674 6.48816 12.5178 6.62402 12.5001 6.72478C12.3933 6.68694 12.4292 6.49044 12.3233 6.53056C12.2133 6.57251 12.2092 6.72934 12.1992 6.85153C12.1933 6.92447 12.211 6.97964 12.2796 7.02295C12.4151 7.10821 12.4555 7.25364 12.456 7.3968C12.456 7.53266 12.501 7.62613 12.6096 7.69679C12.511 7.75561 12.3878 7.71731 12.3924 7.61427C12.4074 7.27598 12.2683 7.06353 11.9047 6.99332C12.1501 6.92949 12.1269 6.7225 12.2056 6.57615C11.9869 6.49044 11.8338 6.5219 11.7247 6.74348C11.6611 6.8725 11.5606 6.99514 11.4006 7.04529C11.4761 5.89958 12.246 4.77301 13.3536 4.53092C12.4701 4.96312 11.897 5.64472 11.6452 6.63998C11.7638 6.53102 11.7851 6.41795 11.8192 6.31446C11.8715 6.15534 11.9215 6.00763 12.1397 6.0596C12.1874 6.071 12.2183 6.03726 12.251 5.99988C12.6196 5.57588 12.9782 5.58864 13.33 6.05185C13.3973 5.95748 13.4586 5.86584 13.525 5.7783C13.8004 5.4122 14.1885 5.21433 14.6035 5.0575C14.9212 4.93759 15.2389 4.81906 15.557 4.70006C15.6716 4.65721 15.7765 4.59976 15.8629 4.51086C15.9861 4.38411 15.9983 4.26238 15.8461 4.1484C15.7965 4.11147 15.7243 4.10327 15.7847 3.99978C15.9438 3.72851 15.9138 3.62501 15.6584 3.43262C15.6002 3.38885 15.5393 3.34827 15.4866 3.28763C16.3683 3.34326 17.2028 3.56802 17.9922 3.97926C17.905 3.98655 17.8172 3.99248 17.73 4.00205C17.4418 4.03306 17.3491 4.12834 17.3609 4.42286C17.365 4.52818 17.3105 4.50493 17.2555 4.51769C17.02 4.5724 16.9732 4.6645 17.0596 4.89246C17.1228 5.05932 17.2414 5.1888 17.3546 5.32011C17.4882 5.47512 17.6277 5.62466 17.7677 5.77374C18.1972 6.23285 18.4735 6.75487 18.4281 7.42507C18.6449 7.36762 18.8439 7.29832 19.0567 7.37583C19.2789 7.45698 19.4112 7.59558 19.423 7.8395C19.4262 7.90971 19.3875 8.00727 19.4889 8.03463C19.7125 8.09526 19.6716 8.25529 19.643 8.41349C19.623 8.52382 19.5789 8.63233 19.6302 8.78689C19.9025 7.79299 19.7584 6.90578 19.1903 6.08513C20.0375 6.85654 20.1574 8.25028 19.633 9.24463C19.5284 9.12609 19.5052 8.98202 19.5134 8.84433C19.528 8.59677 19.4157 8.47322 19.1653 8.43583C19.1825 8.60635 19.0317 8.78187 19.2303 8.95467C18.8885 8.85117 18.6499 8.94144 18.5013 9.2501C18.4558 9.34493 18.3654 9.28429 18.2963 9.28612C18.1931 9.28885 18.3004 9.19995 18.2554 9.17396C18.3949 9.22867 18.4804 9.1767 18.5435 9.04676C18.6012 8.92822 18.6981 8.8416 18.8271 8.80148C19.0798 8.72215 19.1398 8.61136 19.0839 8.31866C19.0039 8.30499 18.9817 8.429 18.893 8.40164C18.9053 8.31 19.0707 8.27535 18.9862 8.15727C18.9049 8.04329 18.7894 7.98676 18.6517 7.98949C18.6344 8.06791 18.7803 8.12399 18.6708 8.19283C18.4758 8.31547 18.5762 8.01138 18.4481 8.02642C18.4344 8.26532 18.4494 8.29997 18.6208 8.40027C18.6544 8.41988 18.6372 8.43948 18.6226 8.44769C18.5103 8.51106 18.5967 8.53659 18.6462 8.55802C18.7003 8.58127 18.8226 8.56121 18.7676 8.65695C18.6935 8.78689 18.6817 8.66242 18.6594 8.60726C18.6576 8.60315 18.6308 8.60498 18.6181 8.61045C18.4717 8.67154 18.2931 8.98612 18.3099 9.14524C18.3108 9.15344 18.2763 9.16575 18.2581 9.17578L18.2576 9.17396ZM16.8678 17.1247C16.9069 17.0043 16.8255 16.992 16.7383 16.9688C15.7402 16.7016 14.7421 16.4349 13.7468 16.1581C13.5931 16.1153 13.5559 16.1759 13.5236 16.3008C13.2523 17.3467 12.9805 18.3926 12.701 19.4362C12.6628 19.5789 12.6978 19.6304 12.8355 19.6669C13.8199 19.9254 14.8044 20.1866 15.7852 20.4583C15.9379 20.5007 15.9838 20.4579 16.0179 20.3229C16.1142 19.9422 16.2192 19.5634 16.3201 19.1836C16.5028 18.4974 16.6855 17.8113 16.8678 17.1247ZM12.3219 19.5292C12.4201 19.5529 12.4555 19.5018 12.4778 19.4138C12.5419 19.1571 12.6123 18.9018 12.681 18.6465C12.8941 17.8505 13.1077 17.0545 13.32 16.2584C13.3445 16.1668 13.3973 16.0679 13.2445 16.0268C12.2315 15.7565 11.2184 15.4838 10.2062 15.2098C10.1049 15.1825 10.0512 15.2103 10.0249 15.3138C9.75218 16.3834 9.47812 17.4525 9.2027 18.5216C9.17225 18.6388 9.19861 18.6926 9.32723 18.7258C9.75082 18.8348 10.169 18.9647 10.5916 19.0778C11.1675 19.2324 11.7452 19.3792 12.3219 19.5292ZM19.2812 21.8238C19.3957 21.858 19.4066 21.7768 19.4266 21.7002C19.5043 21.4002 19.5748 21.098 19.668 20.803C19.7066 20.6813 19.6552 20.6598 19.5661 20.6357C18.539 20.3598 17.5118 20.0845 16.4856 19.8055C16.3665 19.7731 16.3219 19.8214 16.296 19.9258C16.2506 20.1091 16.192 20.2896 16.1547 20.4747C16.1233 20.6307 16.0765 20.6804 15.8988 20.6325C14.6389 20.2928 13.3745 19.9696 12.1128 19.6377C11.1207 19.3769 10.1308 19.1075 9.1377 18.8517C8.97545 18.8097 8.89955 18.7714 8.9709 18.5841C9.04272 18.3944 9.0668 18.187 9.1327 17.9946C9.17406 17.8733 9.13543 17.8318 9.02863 17.8031C8.00828 17.5304 6.98839 17.2573 5.96941 16.9806C5.85169 16.9487 5.79034 16.9747 5.75988 17.0964C5.68989 17.375 5.61808 17.6531 5.53673 17.9285C5.49628 18.0652 5.54854 18.1136 5.67307 18.1487C6.10848 18.2713 6.53935 18.4113 6.97612 18.5298C10.5062 19.4881 14.0367 20.4451 17.5686 21.398C18.1363 21.5512 18.7103 21.6825 19.2812 21.8238ZM15.2771 14.0623C14.7989 14.06 14.4585 14.1676 14.1417 14.3609C14.0672 14.4065 14.0167 14.4589 13.9945 14.5478C13.9322 14.7968 13.8631 15.0443 13.7936 15.2914C13.7654 15.3908 13.7922 15.4451 13.8958 15.4729C14.9085 15.7428 15.9206 16.0145 16.9328 16.2876C17.0387 16.3163 17.0991 16.3013 17.1237 16.1759C17.1587 15.9986 17.195 15.8167 17.2655 15.6516C17.3846 15.3721 17.29 15.1533 17.115 14.9468C16.6065 14.3468 15.9265 14.1211 15.2771 14.0623ZM9.88445 15.1729C9.89444 15.1173 9.83445 15.1164 9.78355 15.1027C9.60175 15.0539 9.41813 15.0106 9.23951 14.9522C9.11544 14.9117 9.02272 14.9062 8.97045 15.0521C8.93046 15.1638 8.83546 15.1642 8.74411 15.1346C8.63594 15.0995 8.45732 15.11 8.47096 14.9541C8.49005 14.7366 8.36733 14.7106 8.21462 14.6778C8.06009 14.6445 7.90465 14.6098 7.75694 14.5551C7.62923 14.5077 7.57333 14.5337 7.52697 14.6641C7.31972 15.2468 7.10474 15.8271 6.88613 16.4062C6.83931 16.5302 6.84523 16.5858 6.99248 16.6241C7.7065 16.8092 8.41824 17.0043 9.12862 17.204C9.28178 17.2473 9.3495 17.2232 9.38995 17.0563C9.49676 16.6168 9.62538 16.1823 9.74264 15.7451C9.79173 15.5627 9.83354 15.379 9.88445 15.1729ZM13.7981 14.4694C13.8122 14.329 13.7536 14.2556 13.7072 14.1795C13.2186 13.3789 12.171 12.9786 11.2343 13.2211C10.7503 13.3465 10.3562 13.5457 10.328 14.1247C10.3253 14.1836 10.3058 14.2447 10.2812 14.2994C10.2203 14.4366 10.2508 14.5009 10.4071 14.5332C10.6503 14.5834 10.8884 14.6595 11.1289 14.7247C11.8788 14.9272 12.6282 15.1314 13.3795 15.3288C13.44 15.3448 13.5386 15.4291 13.5768 15.2828C13.6513 14.9978 13.7313 14.7142 13.7981 14.4694ZM19.2689 17.7707C19.3071 17.6663 19.2425 17.6367 19.1607 17.6162C19.0144 17.5792 18.8658 17.5482 18.724 17.4985C18.5863 17.4502 18.4985 17.4666 18.4472 17.6184C18.4049 17.7438 18.3035 17.7639 18.1881 17.7192C18.0827 17.6782 17.9095 17.6873 17.9327 17.5218C17.964 17.3011 17.8491 17.2496 17.6768 17.2149C17.5218 17.1839 17.3655 17.1488 17.2178 17.0946C17.0987 17.0504 17.0555 17.0891 17.0269 17.1972C16.8655 17.8113 16.7033 18.4249 16.5365 19.0377C16.5119 19.1275 16.5156 19.1809 16.6155 19.2073C17.3514 19.4038 18.0872 19.6026 18.823 19.7995C18.9071 19.8219 18.9589 19.81 18.9748 19.6992C19.068 19.0555 19.1698 18.4126 19.2689 17.7707ZM17.899 17.1365C17.9381 17.1539 17.9763 17.1507 18.0095 17.0859C18.1299 16.8529 18.0845 16.7317 17.8413 16.666C15.8184 16.1194 13.7949 15.5732 11.772 15.0265C10.9789 14.8123 10.1862 14.5953 9.39177 14.3851C9.33723 14.3705 9.27223 14.3016 9.2086 14.3823C9.05044 14.5834 9.11544 14.7772 9.36405 14.8442C11.4825 15.4136 13.6009 15.9835 15.7193 16.553C16.4401 16.7467 17.1614 16.9391 17.899 17.1365ZM21.5609 14.6919C21.5091 14.6345 21.4264 14.6294 21.3532 14.6098C17.1928 13.491 13.0323 12.3731 8.87137 11.2548C8.35415 11.1157 7.83739 10.9744 7.31881 10.8394C7.262 10.8244 7.18428 10.7715 7.1361 10.8572C7.1111 10.9019 7.08747 10.9593 7.1261 11.0058C7.17292 11.0619 7.24836 11.0578 7.31336 11.0751C11.497 12.1939 15.6806 13.3128 19.8643 14.4316C20.3452 14.5601 20.8278 14.6846 21.3069 14.8196C21.4328 14.8551 21.5119 14.8369 21.5605 14.691L21.5609 14.6919ZM21.4087 14.9527C21.3019 14.9221 21.2301 14.9007 21.1578 14.8811C17.2509 13.8134 13.3404 12.7593 9.42404 11.7271C8.6873 11.5329 7.95192 11.3355 7.21518 11.1408C7.16973 11.1289 7.10929 11.0729 7.07747 11.1421C7.04929 11.2042 7.09429 11.2639 7.15156 11.2908C7.23246 11.3295 7.3179 11.3619 7.40471 11.3852C10.2158 12.1429 13.0268 12.8997 15.8384 13.6556C17.55 14.1156 19.2625 14.5734 20.9742 15.0329C21.121 15.0721 21.2641 15.1159 21.4087 14.9527ZM16.4233 7.05714C16.9751 7.01429 17.5023 6.87022 17.9054 6.42297C17.9909 6.32814 18.0081 6.25154 17.9186 6.15078C17.7786 5.99258 17.6436 5.82891 17.5127 5.66296C17.4277 5.55536 17.375 5.5353 17.29 5.6739C17.0578 6.05276 16.7128 6.24562 16.2651 6.21051C15.7679 6.1713 15.4275 5.91462 15.2389 5.44412C15.1798 5.29731 15.2216 5.05112 15.0589 5.02057C14.913 4.99322 14.7407 5.13273 14.5749 5.17832C14.3703 5.23439 14.3512 5.35293 14.399 5.53621C14.6467 6.495 15.5061 6.98648 16.4242 7.05714H16.4233ZM11.6047 12.9854C10.3685 12.6535 9.14043 12.3257 7.91329 11.992C7.81194 11.9646 7.80057 12.007 7.7833 12.0832C7.74694 12.245 7.70695 12.4064 7.66059 12.5655C7.62241 12.6964 7.64105 12.7602 7.79512 12.7999C8.56822 12.9977 9.33723 13.2106 10.1071 13.4208C10.224 13.4527 10.3217 13.434 10.4276 13.3734C10.7312 13.1997 11.0561 13.0839 11.4084 13.0556C11.472 13.0506 11.5443 13.0588 11.6047 12.9854ZM13.5645 6.09334C13.3609 6.38467 13.3432 6.64181 13.5481 6.92174C13.7749 7.23085 14.0272 7.51169 14.3449 7.72233C15.4689 8.46866 16.6469 8.68157 17.894 8.03736C18.2213 7.86822 18.2967 7.6936 18.2536 7.30516C16.8192 8.66106 14.2499 7.83083 13.5645 6.09334ZM16.8023 14.3792C17.1337 14.6554 17.385 14.9928 17.5995 15.3607C17.6468 15.4419 17.7218 15.4615 17.805 15.4834C18.3658 15.6311 18.9258 15.7829 19.4862 15.9343C19.9082 16.0483 20.1593 15.8884 20.2393 15.4547C20.2565 15.3616 20.2547 15.3074 20.1393 15.2768C19.0258 14.9819 17.914 14.6796 16.8023 14.3792ZM13.5763 9.99415C13.6477 9.94719 13.7145 10.0707 13.8095 9.9709C13.4786 9.63124 13.2941 9.20542 13.1918 8.73811C13.1364 8.87306 13.1541 9.00117 13.1732 9.12563C13.2027 9.31758 13.1909 9.51043 13.1373 9.68915C13.0868 9.85783 13.0927 10.0151 13.1232 10.1793C13.1686 10.4282 13.1623 10.678 13.1309 10.927C13.0968 11.1973 13.0577 11.4668 13.0123 11.7353C12.9937 11.8456 13.0114 11.9126 13.1205 11.9701C13.5959 12.2218 14.0808 12.4493 14.5989 12.5965C14.8812 12.6768 15.1652 12.7584 15.4807 12.7784C15.417 12.6549 15.3152 12.6398 15.2271 12.6047C14.7794 12.4256 14.3072 12.3038 13.8936 12.0435C13.7068 11.9259 13.5509 11.7795 13.3963 11.5548C13.5818 11.6072 13.6809 11.7198 13.8222 11.692C13.8308 11.6181 13.7231 11.5953 13.7822 11.5133C13.9349 11.619 14.0604 11.7686 14.2481 11.8196C14.2581 11.7599 14.1472 11.7517 14.2008 11.6779C14.3522 11.7453 14.5017 11.8169 14.6658 11.8506C14.7676 11.8716 14.9185 11.935 14.9548 11.8465C15.003 11.7285 14.8389 11.6956 14.7526 11.6532C14.2599 11.4102 13.8563 11.0646 13.5418 10.6156C13.4677 10.5098 13.3809 10.4058 13.3554 10.2476C13.4913 10.3347 13.5872 10.4373 13.7222 10.4756C13.7713 10.4897 13.8281 10.5294 13.8686 10.4765C13.9145 10.4168 13.849 10.3826 13.8168 10.3461C13.7227 10.239 13.609 10.1455 13.5754 9.99415H13.5763ZM10.2549 13.7938C10.2871 13.6839 10.1853 13.6752 10.0976 13.6515C9.63129 13.528 9.16543 13.4039 8.69957 13.279C8.30234 13.1726 8.03585 13.3119 7.90011 13.6966C7.89738 13.7039 7.89466 13.7108 7.89102 13.7176C7.84693 13.8047 7.87057 13.8548 7.96737 13.8786C8.16508 13.9264 8.3637 13.9725 8.55731 14.034C8.65458 14.065 8.70003 14.0372 8.72684 13.951C8.77184 13.8065 8.86364 13.7705 9.00454 13.8134C9.14679 13.8567 9.28996 13.8872 9.2486 14.091C9.23633 14.1512 9.23815 14.2209 9.31632 14.2383C9.56493 14.293 9.82081 14.4571 10.0522 14.3937C10.1967 14.3541 10.1662 14.0454 10.2367 13.8644C10.2421 13.8503 10.2444 13.8348 10.2549 13.7938ZM19.4857 16.2903C19.5271 16.1581 19.4339 16.1627 19.3634 16.1435C18.9121 16.0218 18.4604 15.901 18.009 15.7779C17.613 15.6697 17.3727 15.816 17.2882 16.2169C17.2673 16.3154 17.2596 16.382 17.3927 16.4084C17.6068 16.4504 17.8163 16.5165 18.0268 16.5758C18.0963 16.5954 18.1654 16.6168 18.1899 16.5233C18.2395 16.3332 18.3676 16.3806 18.494 16.4153C18.6171 16.449 18.7617 16.4622 18.7017 16.6564C18.6781 16.7335 18.7308 16.7609 18.7921 16.7859C19.333 17.0075 19.3943 16.9719 19.4721 16.3906C19.4771 16.3533 19.4825 16.3154 19.4857 16.2903ZM20.8224 15.374C20.831 15.3411 20.8396 15.3083 20.8487 15.2759C16.3256 14.0614 11.8029 12.8468 7.27972 11.6323C7.27109 11.6651 7.262 11.6979 7.25336 11.7307C11.7765 12.9453 16.2992 14.1594 20.8224 15.374ZM7.25064 11.4704C7.24336 11.4973 7.23609 11.5242 7.22882 11.5516C11.7961 12.7784 16.3633 14.0053 20.9305 15.2322C20.9378 15.2048 20.9451 15.1775 20.9524 15.1501C16.3847 13.9251 11.8315 12.6462 7.25064 11.4704ZM16.6201 11.3455C16.1229 11.5962 15.6493 11.6997 15.1571 11.7257C15.1234 11.7275 15.0639 11.7285 15.0803 11.78C15.1702 12.0581 14.9435 12.0061 14.7826 12.0458C14.9725 12.157 15.1516 12.1233 15.3302 12.1037C15.358 12.1005 15.4289 12.0553 15.4125 12.1142C15.3489 12.3453 15.537 12.2368 15.592 12.2354C15.7366 12.2327 15.8806 12.193 16.0592 12.162C15.7811 12.359 15.487 12.3873 15.1725 12.4369C15.3261 12.514 15.4539 12.6198 15.5911 12.6353C15.7338 12.6512 15.947 12.7456 16.0302 12.5528C16.1992 12.1607 16.3756 11.7731 16.6201 11.3446V11.3455ZM18.2454 6.88526C17.4786 7.555 16.6451 7.80621 15.6916 7.53586C14.763 7.27279 14.1408 6.65548 13.7499 5.7587C13.6531 5.92374 13.7209 6.03589 13.7677 6.1403C14.0813 6.84514 14.6385 7.30152 15.3339 7.57279C16.2588 7.93342 17.1664 7.91746 17.9999 7.29787C18.1199 7.20897 18.2363 7.1114 18.2454 6.88526ZM7.4597 14.5064C7.43107 14.4484 7.3579 14.4462 7.29927 14.4302C6.06985 14.0979 4.83953 13.7669 3.60875 13.44C3.54194 13.4222 3.43422 13.3479 3.40332 13.4801C3.37286 13.6096 3.49922 13.5913 3.5683 13.6096C4.26004 13.7947 4.95315 13.9748 5.64535 14.1571C6.19211 14.3012 6.73842 14.4462 7.28427 14.5925C7.36153 14.613 7.43562 14.6395 7.4597 14.5064ZM23.4648 18.8225C23.4407 18.7199 23.343 18.7432 23.2803 18.7258C22.0513 18.3921 20.8215 18.0643 19.5911 17.7356C19.5234 17.7174 19.4312 17.6517 19.3971 17.7552C19.3534 17.8883 19.4902 17.8674 19.5552 17.8851C20.2965 18.088 21.0392 18.2845 21.7814 18.4838C22.2763 18.6169 22.7699 18.7537 23.2653 18.8836C23.3344 18.9018 23.4325 18.9579 23.4648 18.8225ZM23.5203 17.8031C22.8976 16.583 22.2927 15.3981 21.6796 14.1977C21.6273 14.2834 21.6686 14.3272 21.6896 14.3732C22.179 15.4519 22.6722 16.5288 23.1567 17.6098C23.2262 17.7643 23.3417 17.7839 23.5203 17.8031ZM17.2264 10.11C16.9155 10.3115 16.5796 10.4131 16.2238 10.4596C16.182 10.4651 16.1256 10.4542 16.1111 10.5116C16.0942 10.5782 16.1506 10.6055 16.1942 10.6311C16.3497 10.7222 16.5301 10.7273 16.7337 10.7564C16.4715 11.0418 16.1065 10.9256 15.792 11.0687C16.0747 11.1836 16.3197 11.1613 16.5869 11.1052C16.5428 11.1727 16.5119 11.2201 16.4769 11.2739C16.5828 11.2962 16.6555 11.2434 16.7137 11.1909C17.0291 10.9064 17.0123 10.4578 17.2264 10.11ZM3.786 12.4921C3.95189 12.6038 4.0787 12.5924 4.23005 12.483C5.14904 11.8169 6.07531 11.1613 6.99794 10.5002C7.0552 10.4592 7.13292 10.4346 7.16655 10.3005C6.02122 11.0432 4.91043 11.7631 3.786 12.4921ZM13.2695 13.4322C13.5109 13.6647 13.7486 13.8909 13.9467 14.1553C13.9799 14.1995 14.0176 14.1977 14.0649 14.1758C14.3558 14.0418 14.6667 13.9734 14.9803 13.8918C14.4099 13.7386 13.8399 13.5854 13.2695 13.4322ZM19.0607 20.3886C19.0935 20.3699 19.1566 20.4255 19.1607 20.3466C19.1639 20.2837 19.1348 20.2299 19.0639 20.2112C18.9185 20.1734 18.773 20.1337 18.6276 20.0945C17.9445 19.9103 17.2618 19.7261 16.5787 19.5424C16.5074 19.5232 16.4238 19.4859 16.3901 19.5921C16.3647 19.6728 16.4438 19.6714 16.4874 19.6837C17.3432 19.9199 18.1999 20.1533 19.0607 20.3886ZM6.41663 16.9628C6.44299 16.9765 6.46208 16.9906 6.48299 16.9961C7.34108 17.2291 8.19962 17.4616 9.05817 17.6932C9.1218 17.7105 9.20088 17.7406 9.21906 17.6371C9.23815 17.5282 9.1318 17.5459 9.08226 17.5323C8.27507 17.3121 7.46607 17.0991 6.65797 16.8826C6.56525 16.858 6.48026 16.8374 6.41663 16.9628ZM22.4145 12.3111C22.3927 12.3284 22.3704 12.3458 22.3486 12.3635C23.0112 13.1058 23.6739 13.8476 24.3629 14.619C24.3834 14.4717 24.4134 14.3719 24.3261 14.282C23.6884 13.6255 23.0517 12.9681 22.4145 12.3111ZM4.64273 9.31666C5.61763 8.9957 6.54935 8.68932 7.48061 8.38295C7.4747 8.36198 7.46834 8.341 7.46243 8.32003C7.4338 8.32186 7.4038 8.31912 7.37653 8.32641C6.5348 8.56577 5.69444 8.80832 4.8518 9.04311C4.72727 9.07776 4.68636 9.15755 4.64273 9.31666ZM8.60549 14.7544C8.59594 14.8579 8.59231 14.9513 8.72911 14.9791C8.85319 15.0042 8.90273 14.9431 8.94454 14.8392C9.03453 14.6135 9.08089 14.3787 9.11407 14.1403C9.12771 14.0422 9.09362 13.9843 8.98818 13.967C8.89591 13.9515 8.82865 13.9583 8.79274 14.0609C8.7132 14.288 8.63094 14.5132 8.60549 14.7544ZM18.5735 16.7312C18.6112 16.63 18.5531 16.584 18.4372 16.547C18.2999 16.5033 18.2758 16.5944 18.2499 16.6774C18.1854 16.8862 18.1277 17.0978 18.0731 17.3098C18.0449 17.4187 18.044 17.5227 18.1827 17.5651C18.3204 17.607 18.3749 17.5245 18.4144 17.416C18.4926 17.2022 18.5412 16.9806 18.5735 16.7312ZM15.4852 8.64783L15.437 8.63507C15.1752 9.48125 14.9139 10.3274 14.6521 11.1736C14.6289 11.2484 14.6348 11.3122 14.723 11.3304C14.8262 11.3519 14.8226 11.2652 14.8385 11.2028C14.9921 10.5964 15.1448 9.99005 15.2984 9.38368C15.3602 9.1384 15.4229 8.89312 15.4852 8.64783ZM22.5422 10.1382C22.5236 10.1628 22.5045 10.187 22.4858 10.2116C23.034 10.6534 23.5957 11.0783 24.1661 11.5242C24.1711 11.3241 24.0961 11.2046 23.9475 11.1111C23.7175 10.9662 23.4989 10.8039 23.2753 10.6488C23.0308 10.4788 22.7867 10.3083 22.5422 10.1382ZM8.40324 6.43892C8.3996 6.40701 8.39642 6.3751 8.39279 6.34364C7.81876 6.39333 7.24472 6.44804 6.66979 6.48907C6.50071 6.50093 6.39436 6.57387 6.31119 6.73117C7.01884 6.63223 7.71104 6.53558 8.40324 6.43892ZM16.0592 3.73215C16.0379 3.85388 16.0956 3.88124 16.212 3.8744C16.5206 3.85571 16.8164 3.92045 17.0646 4.10783C17.2037 4.21269 17.2209 4.09506 17.2746 4.03442C17.3714 3.92455 17.2514 3.90814 17.1969 3.88306C16.8728 3.7358 16.5301 3.65601 16.1774 3.6127C16.0779 3.60039 16.0302 3.62045 16.0592 3.73215ZM16.4819 19.2967C16.4737 19.3267 16.466 19.3568 16.4578 19.3869C17.3205 19.6131 18.1831 19.8392 19.0457 20.0653C19.0535 20.0357 19.0617 20.0061 19.0694 19.9764C18.2131 19.7261 17.35 19.5018 16.4819 19.2967ZM9.26769 17.4561C9.27406 17.4238 9.27996 17.3914 9.28633 17.3595C8.41415 17.1311 7.5506 16.8703 6.67115 16.6715C6.66388 16.6998 6.65706 16.7276 6.64979 16.7558C7.52242 16.9893 8.39506 17.2227 9.26769 17.4561ZM13.1914 6.40063C13.2327 6.13346 13.1423 5.96112 12.9641 5.83301C12.8037 5.71767 12.5782 5.74776 12.4751 5.88772C12.4337 5.9438 12.4064 5.9862 12.5087 6.01173C12.7605 6.07373 12.9814 6.1982 13.1914 6.40063ZM6.16893 13.1272C6.26665 13.2134 6.34028 13.2161 6.423 13.1372C6.78523 12.7894 7.1511 12.4452 7.51561 12.0991L7.46379 12.0385C7.03702 12.3973 6.60979 12.7565 6.16893 13.1272ZM20.4829 15.5923C20.5588 15.8504 20.6342 16.1089 20.711 16.3665C20.7778 16.5908 20.8501 16.8133 20.9133 17.0385C20.9387 17.1297 21.0019 17.178 21.0773 17.1493C21.151 17.121 21.0937 17.0476 21.076 16.997C20.9415 16.62 20.8078 16.2429 20.6678 15.8682C20.6301 15.7674 20.6238 15.6475 20.4829 15.5923ZM14.8675 8.27717C14.5826 8.87762 14.3022 9.46666 14.0245 10.0566C14.0017 10.1054 13.9945 10.1733 14.0595 10.1911C14.1317 10.2107 14.1331 10.1305 14.1513 10.0885C14.3967 9.52866 14.6398 8.96743 14.8816 8.40574C14.8948 8.37474 14.9253 8.34009 14.8675 8.27717ZM16.1047 8.61911C15.9956 8.83066 16.0147 9.00208 15.9933 9.16484C15.927 9.66772 15.872 10.1724 15.8129 10.6762C15.8079 10.7186 15.7834 10.7701 15.8474 10.7874C15.9106 10.8048 15.9229 10.7601 15.927 10.7109C15.9843 10.0343 16.042 9.3577 16.1047 8.61911ZM12.5592 6.30169C12.1524 6.06416 11.9351 6.05322 11.9088 6.44257C12.1487 6.52965 12.3383 6.37829 12.5592 6.30169ZM18.319 8.06335C18.2631 8.19192 18.2036 8.30909 18.1613 8.43264C18.1367 8.50468 18.0213 8.56349 18.089 8.64373C18.1699 8.73993 18.2958 8.71394 18.4058 8.69024C18.5213 8.66516 18.5472 8.5913 18.4458 8.52702C18.3558 8.47003 18.3572 8.41395 18.3717 8.32413C18.3849 8.24344 18.4167 8.14678 18.319 8.06335ZM14.3135 7.99496C14.2949 7.98083 14.2767 7.96715 14.2581 7.95302C14.0349 8.26988 13.8104 8.58583 13.589 8.90406C13.5409 8.97336 13.5891 9.02716 13.6395 9.08871C13.8667 8.71987 14.0904 8.35742 14.3135 7.99496ZM13.1409 6.65184C13.0218 6.69971 12.9923 6.79363 12.9537 6.8839C12.9328 6.93314 12.9364 7.00791 12.8469 7.00563C12.7819 7.0038 12.6787 7.00471 12.7073 7.09727C12.7437 7.2158 12.8473 7.28237 12.9832 7.28921C13.1127 7.29559 13.0764 7.2076 13.0836 7.13784C13.1 6.98146 13.12 6.826 13.1409 6.65184ZM16.9187 8.62869C16.901 8.63142 16.8832 8.63416 16.866 8.63689C16.9151 9.03126 16.9641 9.42563 17.0132 9.81999C17.0182 9.86148 17.0282 9.89203 17.0819 9.87926C17.1423 9.86513 17.1437 9.82546 17.1346 9.77668C17.0623 9.39417 16.9905 9.0112 16.9187 8.62869ZM22.0395 7.89877C22.229 8.16183 22.5422 8.21745 22.8035 8.36517C22.6613 8.02414 22.3118 8.03007 22.0395 7.89877ZM8.925 4.65812C9.56493 4.73653 9.764 4.72377 9.85854 4.59794C9.5563 4.59839 9.25315 4.43563 8.925 4.65812ZM19.2753 7.79071C19.0444 7.6243 18.7871 7.61564 18.5244 7.64209C18.4654 7.64801 18.4231 7.68813 18.4304 7.7474C18.4363 7.79664 18.4899 7.78707 18.5222 7.77704C18.7758 7.69907 19.0239 7.77293 19.2753 7.79071ZM13.1532 6.54834C12.9818 6.25838 12.5614 6.04638 12.3869 6.12571C12.6342 6.23923 12.875 6.35595 13.1532 6.54834ZM18.4258 7.917C18.7031 7.89557 18.9798 7.96168 19.2589 7.93661C18.9848 7.84041 18.7103 7.76792 18.4258 7.917ZM19.2498 7.64664C19.0466 7.37173 18.8421 7.34847 18.6212 7.56093C18.8335 7.53677 19.0244 7.57507 19.2498 7.64664ZM18.9994 8.00636C19.2862 8.42489 19.3071 8.44267 19.508 8.41897C19.2362 8.41395 19.2657 8.05469 18.9994 8.00636ZM19.243 8.06837C19.298 8.20514 19.3812 8.29131 19.5052 8.31547C19.5598 8.32596 19.5693 8.24708 19.5543 8.21244C19.5002 8.08432 19.3848 8.06335 19.243 8.06837Z" fill="#E7E7E7"/>
<path d="M18.4337 23.6949C14.2455 26.0611 7.72073 24.1677 5.31144 20.1684C5.70777 20.276 6.08727 20.369 6.46041 20.4834C6.68266 20.5514 6.68312 20.3986 6.71902 20.2655C6.75447 20.1337 6.8181 20.0161 6.59676 19.9632C6.05409 19.8333 5.51733 19.6765 4.97875 19.5297C4.92467 19.5151 4.82922 19.521 4.84786 19.4426C4.87195 19.34 4.95876 19.4029 5.01557 19.4216C5.63187 19.6263 6.26316 19.6628 6.91127 19.6678C9.48373 19.6883 11.9589 20.2564 14.3764 21.1003C15.6994 21.5621 16.9752 22.1279 18.1451 22.9139C18.2001 22.9508 18.2664 22.9736 18.331 22.9914C18.5709 23.0589 18.8136 23.1154 19.0509 23.1897C19.1109 23.2084 19.2436 23.1843 19.2195 23.2891C19.1932 23.4036 19.0909 23.3142 19.0309 23.2992C18.665 23.2071 18.3019 23.1049 17.9374 23.0074C17.7842 22.9664 17.6274 22.9376 17.4779 22.8861C17.362 22.846 17.3102 22.8784 17.287 22.9905C17.2765 23.042 17.2611 23.0935 17.2411 23.1423C17.1734 23.3051 17.2175 23.378 17.3993 23.4173C17.7369 23.4902 18.0678 23.5941 18.4346 23.6944L18.4337 23.6949ZM6.58494 19.8242C7.52712 19.9605 8.48474 19.9733 9.42964 20.1178C10.3709 20.2619 11.3035 20.4406 12.2234 20.6854C13.1492 20.9316 14.0682 21.2001 14.9622 21.5512C15.8485 21.8991 16.6693 22.3864 17.5424 22.7534C14.1569 20.7816 10.4813 19.8803 6.58494 19.8242Z" fill="#E7E7E7"/>
<path d="M5.07244 21.7928C5.04699 21.7508 5.03654 21.7321 5.02426 21.7143C4.97381 21.6432 4.84838 21.5689 4.88883 21.5028C4.947 21.4075 5.06881 21.3478 5.17016 21.283C5.23652 21.2406 5.26151 21.3163 5.2906 21.3519C5.72919 21.8871 6.24232 22.3462 6.75635 22.8053C7.10223 23.1145 7.11677 23.2663 6.82316 23.6292C6.63318 23.8644 6.42003 24.081 6.22141 24.3094C6.15687 24.3837 6.10915 24.4065 6.01825 24.3359C5.29787 23.7783 4.63158 23.1646 4.05301 22.457C3.98938 22.3795 3.99165 22.3376 4.06982 22.2783C4.23889 22.1511 4.40433 22.0184 4.56886 21.8848C4.71248 21.7686 4.88564 21.816 5.07244 21.7918V21.7928ZM5.17016 21.9842C4.94564 21.9715 4.7852 22.0873 4.63294 22.2354C4.54568 22.3207 4.53114 22.3722 4.6184 22.4725C4.95745 22.8614 5.30605 23.2412 5.71101 23.5617C6.20596 23.9533 6.00644 23.9684 6.46048 23.5079C6.61546 23.3511 6.6041 23.2129 6.44366 23.0634C6.09461 22.7383 5.75101 22.4069 5.40968 22.0741C5.33878 22.0048 5.26742 21.9646 5.17016 21.9842Z" fill="#E7E7E7"/>
<path d="M11.2481 25.4934C11.0559 25.4305 10.8941 25.436 10.9736 25.2048C11.0322 25.0334 11.1018 24.9974 11.2572 25.0521C11.3495 25.0845 11.4458 25.1054 11.5417 25.1269C11.764 25.1761 11.8231 25.3243 11.7035 25.5231C11.6794 25.5636 11.6549 25.5823 11.6163 25.5659C11.4363 25.488 11.3522 25.6133 11.2645 25.7296C11.1331 25.9037 11.0036 26.0793 10.8577 26.2758C11.2854 26.4235 11.6853 26.5315 12.1108 26.4021C12.2353 26.3642 12.4598 25.8946 12.3971 25.7884C12.3457 25.7018 12.2357 25.7095 12.1512 25.6913C11.9167 25.6407 12.0721 25.4934 12.0708 25.3895C12.0689 25.255 12.1562 25.2577 12.2585 25.2778C12.7752 25.3794 12.773 25.3817 12.6502 25.8933C12.5762 26.2024 12.4966 26.4873 12.1439 26.6045C11.8594 26.6989 11.5976 26.8429 11.2745 26.7673C10.7959 26.6556 10.3269 26.5147 9.86418 26.3519C9.7651 26.3168 9.74101 26.2726 9.77828 26.1668C9.87599 25.8887 9.95826 25.6056 10.0473 25.3243C10.0751 25.2363 10.1055 25.1702 9.97962 25.1073C9.81918 25.027 9.97507 24.9021 9.98325 24.7977C9.9928 24.6796 10.0805 24.7065 10.1541 24.7298C10.2619 24.7644 10.3659 24.8214 10.4755 24.8365C10.7259 24.8702 10.7291 25.0024 10.665 25.2016C10.6314 25.3065 10.5877 25.3202 10.5046 25.2855C10.365 25.2276 10.3137 25.2956 10.2846 25.4218C10.2578 25.5395 10.2087 25.6525 10.1846 25.7702C10.1664 25.8586 10.0569 25.9635 10.1546 26.0346C10.261 26.1121 10.4009 26.1454 10.5423 26.0911C10.6441 26.0519 10.7232 25.9822 10.8009 25.9106C10.9391 25.7834 11.0759 25.6544 11.2481 25.4934Z" fill="#E7E7E7"/>
<path d="M2.60088 17.0225C2.90949 17.023 3.10447 17.1452 3.19627 17.3859C3.35262 17.7953 3.48215 18.2147 3.6335 18.626C3.67304 18.7336 3.62168 18.7596 3.54669 18.7906C3.12855 18.9643 2.70997 19.1371 2.29274 19.313C2.21638 19.3454 2.15639 19.3709 2.11003 19.2684C1.90732 18.8211 1.68871 18.3789 1.5719 17.8992C1.47509 17.5021 1.63553 17.3029 2.0364 17.2984C2.12321 17.2974 2.17138 17.2673 2.22411 17.2049C2.33273 17.0772 2.47726 17.0175 2.60088 17.0225ZM2.67224 17.3316C2.46544 17.312 2.33864 17.4752 2.405 17.6895C2.50726 18.0196 2.64043 18.3406 2.7586 18.6661C2.79041 18.7541 2.8404 18.7559 2.91494 18.719C2.98903 18.6825 3.06629 18.6511 3.14537 18.6278C3.24627 18.5977 3.27718 18.5489 3.23627 18.4445C3.11856 18.1432 3.00993 17.8377 2.89358 17.5359C2.85086 17.4246 2.7745 17.3444 2.67224 17.3316ZM2.52725 18.7947C2.51135 18.755 2.49271 18.7058 2.47226 18.6574C2.36136 18.3935 2.25047 18.1295 2.13821 17.866C2.10594 17.7898 2.07276 17.7137 2.03185 17.6426C2.00913 17.6034 1.96323 17.5719 1.91732 17.5888C1.86324 17.6084 1.8346 17.6603 1.85187 17.7182C1.97277 18.1154 2.12684 18.5001 2.30092 18.8767C2.33273 18.946 2.37818 18.9301 2.4309 18.9059C2.47771 18.8845 2.53771 18.8799 2.52725 18.7947Z" fill="#E7E7E7"/>
<path d="M22.5233 5.98615C22.5669 6.05636 22.5764 6.07596 22.5901 6.09283C22.74 6.27565 22.676 6.4448 22.4387 6.5109C22.3651 6.53142 22.3451 6.48218 22.3133 6.4448C21.8729 5.92277 21.3743 5.46002 20.8657 5.00684C20.8057 4.9535 20.6907 4.90517 20.8153 4.80168C20.908 4.72508 20.9575 4.55913 21.1348 4.71505C21.4702 5.01003 21.7979 5.31185 22.1124 5.62916C22.3469 5.86578 22.6023 5.87536 22.8605 5.65789C23.0986 5.45728 23.0959 5.45956 22.9018 5.22659C22.5469 4.80077 22.151 4.41734 21.7179 4.07221C21.6574 4.02434 21.5484 3.97373 21.6665 3.88848C21.7552 3.82465 21.7788 3.60353 21.9738 3.759C22.4964 4.17571 22.9682 4.64302 23.395 5.15684C23.5581 5.35379 23.5486 5.47005 23.3568 5.64375C23.1323 5.84709 22.9114 6.0673 22.5233 5.98615Z" fill="#E7E7E7"/>
<path d="M4.53818 6.9655C4.62317 6.95319 4.64317 6.88845 4.67816 6.8424C4.90723 6.54058 5.14902 6.24971 5.40218 5.96795C5.48399 5.87723 5.53762 5.88589 5.62124 5.95838C5.70078 6.02722 5.73987 6.07418 5.65533 6.17631C5.34173 6.55517 5.02631 6.93358 4.75497 7.34527C4.7018 7.42597 4.65135 7.43783 4.57136 7.37947C4.17458 7.08905 3.7769 6.8 3.37648 6.5146C3.29058 6.4535 3.30558 6.40472 3.35921 6.33086C3.67827 5.88771 4.01823 5.4628 4.38592 5.05931C4.47273 4.96403 4.52318 4.98591 4.60408 5.05658C4.68362 5.12633 4.72134 5.17192 4.6309 5.26995C4.36365 5.55945 4.11504 5.86492 3.89325 6.19135C3.84643 6.26019 3.72236 6.33041 3.86189 6.43162C3.99187 6.52554 4.01596 6.38968 4.06459 6.33314C4.30048 6.05686 4.53 5.7751 4.76134 5.49471C4.84451 5.39396 4.91405 5.3242 5.05085 5.44958C5.1872 5.57404 5.07494 5.63194 5.01631 5.70535C4.7936 5.983 4.56499 6.25564 4.34274 6.53329C4.29866 6.58845 4.20412 6.65593 4.25502 6.72158C4.33138 6.82051 4.44683 6.88981 4.53818 6.9655Z" fill="#E7E7E7"/>
<path d="M20.2815 4.0636C20.0347 3.63914 19.7888 3.21377 19.5402 2.79022C19.4356 2.61242 19.2293 2.58825 19.0707 2.49251C18.9848 2.44099 18.8812 2.4109 18.9798 2.28188C19.0516 2.1875 19.0602 1.9942 19.262 2.11957C19.3384 2.16699 19.4238 2.20073 19.5075 2.23492C19.6102 2.27686 19.6693 2.34069 19.6479 2.45923C19.6197 2.61424 19.687 2.73187 19.7806 2.85041C19.9724 3.09386 20.1506 3.34826 20.3387 3.59492C20.3783 3.64689 20.3978 3.74856 20.5064 3.69339C20.6155 3.63777 20.7287 3.57759 20.7787 3.46452C20.8223 3.36605 20.7073 3.34051 20.6505 3.31179C20.4933 3.23201 20.5001 3.1545 20.5905 3.01362C20.6846 2.86636 20.7519 2.86226 20.8891 2.95435C21.2936 3.22471 21.2873 3.44127 20.8537 3.68975C20.8078 3.71619 20.7628 3.7481 20.7132 3.76224C20.5319 3.81375 20.4983 3.90175 20.6014 4.0677C20.6823 4.19855 20.5233 4.56875 20.3824 4.62574C20.3187 4.65173 20.2837 4.60249 20.2428 4.57559C19.6947 4.21177 19.1202 3.89308 18.5353 3.59309C18.4517 3.55024 18.3344 3.52425 18.4339 3.38702C18.5089 3.28307 18.5389 3.14037 18.7353 3.24842C19.1784 3.49233 19.627 3.72622 20.0583 3.99065C20.1206 4.02849 20.1851 4.06268 20.2483 4.0987C20.2597 4.0873 20.271 4.07591 20.2824 4.06451L20.2815 4.0636Z" fill="#E7E7E7"/>
<path d="M26.553 10.7482C26.578 10.9064 26.4325 10.8672 26.3571 10.9028C26.2594 10.9484 26.2539 10.8704 26.2344 10.7997C26.1412 10.4655 26.043 10.1327 25.943 9.80036C25.9185 9.71875 25.9126 9.61526 25.7681 9.66359C25.6444 9.70508 25.6244 9.7648 25.6604 9.88243C25.7567 10.2002 25.8358 10.5234 25.9362 10.8398C25.9753 10.9634 25.954 11.0199 25.8294 11.0509C25.714 11.0797 25.6722 11.0391 25.6431 10.9265C25.5604 10.6051 25.4613 10.2877 25.3731 9.96768C25.3431 9.85918 25.2999 9.76936 25.1781 9.85416C25.0804 9.92209 24.8309 9.83684 24.9159 10.104C25.0163 10.4204 25.0986 10.7432 25.2095 11.0555C25.2713 11.2292 25.179 11.2588 25.0554 11.3063C24.8891 11.3705 24.9195 11.2265 24.9009 11.1608C24.7809 10.7395 24.6577 10.3192 24.5 9.91069C24.455 9.79398 24.4832 9.75067 24.5886 9.71146C25.0336 9.54596 25.4767 9.37545 25.9208 9.20722C25.9858 9.1826 26.0526 9.15752 26.0862 9.25235C26.2617 9.74292 26.4362 10.2344 26.553 10.7482Z" fill="#E7E7E7"/>
<path d="M1.01637 15.146C0.987279 15.0047 1.09545 15.0311 1.16999 15.0115C1.27861 14.9828 1.29225 15.0389 1.30406 15.1296C1.3486 15.4743 1.39678 15.819 1.45587 16.1614C1.46905 16.2375 1.44223 16.377 1.61449 16.3401C1.75402 16.3104 1.77356 16.2338 1.75356 16.1117C1.70039 15.7834 1.65857 15.4533 1.60085 15.126C1.57994 15.007 1.58449 14.9454 1.72629 14.9272C1.85901 14.9103 1.88627 14.9541 1.90264 15.0767C1.94854 15.4132 2.02581 15.746 2.06626 16.0829C2.09034 16.2808 2.20988 16.2238 2.30759 16.1983C2.40258 16.1737 2.56393 16.2156 2.51394 15.999C2.43803 15.6685 2.40576 15.3279 2.33441 14.996C2.30078 14.8397 2.38849 14.846 2.48576 14.8205C2.59893 14.7913 2.6462 14.8123 2.66574 14.939C2.73119 15.3644 2.80618 15.7884 2.88571 16.2115C2.90889 16.336 2.86617 16.3911 2.75073 16.4176C2.30305 16.5206 1.85537 16.6255 1.4086 16.7322C1.32361 16.7522 1.2727 16.7499 1.24907 16.6419C1.14181 16.1463 1.04682 15.6503 1.01637 15.146Z" fill="#E7E7E7"/>
<path d="M15.2702 1.37553C15.1807 1.36778 15.1052 1.3541 15.0307 1.35593C14.8743 1.36048 14.8244 1.29802 14.8384 1.13754C14.8534 0.961559 14.9466 0.968397 15.0698 0.994841C15.1066 1.00259 15.1452 0.9994 15.1829 1.0035C15.5752 1.04727 15.597 1.019 15.4861 1.4658C15.4261 1.70835 15.2407 1.85743 15.0261 1.98463C15.1643 2.13281 15.3134 2.26867 15.3298 2.48113C15.3329 2.52216 15.3498 2.57687 15.2861 2.59237C15.2457 2.60194 15.2152 2.58234 15.1911 2.54769C14.983 2.25043 14.6548 2.14056 14.343 2.00697C14.0863 1.8971 13.8213 1.80591 13.569 1.68601C13.3895 1.60075 13.2986 1.65911 13.2472 1.82689C13.2232 1.90576 13.2122 1.98919 13.1991 2.0708C13.1786 2.19663 13.225 2.26639 13.3581 2.22536C13.5858 2.15469 13.5681 2.34025 13.5877 2.45559C13.6163 2.62292 13.46 2.57048 13.3845 2.58097C12.9741 2.63705 12.9755 2.63249 12.9741 2.21259C12.9736 1.98874 12.9923 1.7699 13.1436 1.59163C13.2063 1.51732 13.1586 1.49133 13.1109 1.45304C12.9827 1.34954 12.8964 1.22052 12.8696 1.05457C12.8623 1.00943 12.8418 0.961559 12.8818 0.927365C12.9227 0.89226 12.9664 0.916423 13.0059 0.941498C13.5018 1.25198 14.0608 1.43024 14.578 1.69604C14.9107 1.86701 15.1452 1.76716 15.2702 1.37553Z" fill="#E7E7E7"/>
<path d="M10.8999 2.48845C10.9154 2.27645 11.0395 2.14377 11.2199 2.05533C11.4708 1.93314 11.7221 1.81232 11.9748 1.69333C12.0589 1.65367 12.1562 1.6213 12.108 1.50139C12.063 1.38923 11.9612 1.44303 11.8912 1.4599C11.3349 1.5944 10.779 1.73163 10.2259 1.8798C10.1005 1.91354 10.0291 1.91582 10.0005 1.76901C9.98003 1.66278 9.97048 1.54516 9.79141 1.58665C9.70506 1.60671 9.71869 1.47631 9.68642 1.41431C9.65643 1.35686 9.67052 1.3213 9.72642 1.28392C9.92731 1.15033 10.0732 1.17495 10.1768 1.38376C10.2341 1.4982 10.3055 1.45261 10.3836 1.43391C10.8895 1.31446 11.3949 1.19456 11.9016 1.0783C12.3143 0.983469 12.3498 1.00718 12.4411 1.41249C12.502 1.683 12.4073 1.86749 12.1571 1.96597C11.8976 2.06809 11.6385 2.17022 11.3799 2.27462C11.2958 2.30836 11.2113 2.3462 11.1549 2.42097C11.134 2.44833 11.1126 2.49437 11.1217 2.52127C11.1363 2.56367 11.1863 2.55319 11.2185 2.53495C11.3467 2.46337 11.3899 2.53085 11.4203 2.64483C11.4531 2.76792 11.3894 2.79665 11.2876 2.82765C11.0049 2.91336 10.8986 2.82491 10.8999 2.48845Z" fill="#E7E7E7"/>
<path d="M16.6754 2.57182C16.725 2.59143 16.7722 2.61422 16.8213 2.6279C16.9559 2.66574 16.8877 2.75875 16.8745 2.83078C16.8595 2.91331 16.82 2.98078 16.72 2.92197C16.615 2.85996 16.4018 2.91741 16.4014 2.782C16.4005 2.58733 16.4618 2.37396 16.6682 2.26135C16.785 2.19752 16.9104 2.18384 17.0418 2.1925C17.3135 2.20983 17.5853 2.22487 17.8571 2.23946C17.9298 2.24311 18.0126 2.26636 18.0257 2.14828C18.0376 2.04114 17.9639 2.02199 17.8903 2.00147C17.3372 1.85011 16.7863 1.69191 16.23 1.55468C16.0732 1.51592 16.0032 1.47398 16.0619 1.3062C16.0937 1.21548 16.115 1.13523 15.9737 1.08052C15.8692 1.03995 15.9469 0.882657 15.9873 0.848463C16.085 0.765943 16.2132 0.834786 16.3291 0.854846C16.4355 0.873083 16.4468 0.954692 16.4191 1.02627C16.355 1.1945 16.4459 1.22368 16.5795 1.2556C17.1299 1.3869 17.6735 1.54145 18.2112 1.71881C18.4157 1.78628 18.4639 1.903 18.4157 2.09676C18.2821 2.63201 18.2844 2.63064 17.7349 2.55359C17.4658 2.51575 17.1958 2.48338 16.9259 2.45648C16.8309 2.4469 16.725 2.44143 16.6763 2.57137L16.6754 2.57182Z" fill="#E7E7E7"/>
<path d="M22.6456 23.8335C22.5665 23.8002 22.5324 23.7295 22.4883 23.6716C22.4329 23.5991 22.5083 23.5631 22.5465 23.5239C22.7842 23.28 23.0305 23.0443 23.2428 22.7762C23.3041 22.6987 23.3769 22.6399 23.2664 22.5318C23.1464 22.4142 23.0978 22.5168 23.0337 22.5806C22.8087 22.8054 22.5865 23.0329 22.362 23.2581C22.2924 23.3279 22.2461 23.4263 22.1152 23.3014C21.9743 23.1674 22.0793 23.1154 22.1538 23.0374C22.3633 22.8186 22.571 22.5984 22.7824 22.3818C22.8633 22.2988 22.9324 22.2277 22.7951 22.1315C22.6878 22.0563 22.6201 21.8972 22.4529 22.0754C22.2415 22.3011 21.9984 22.4976 21.7716 22.7092C21.7034 22.7725 21.643 22.82 21.5811 22.7064C21.5366 22.6248 21.4121 22.5665 21.5489 22.4466C21.8679 22.168 22.1829 21.8831 22.4638 21.5644C22.5247 21.4951 22.5678 21.5037 22.6297 21.5589C22.9955 21.8876 23.3632 22.2145 23.7318 22.5405C23.7882 22.5902 23.7954 22.6312 23.7455 22.6923C23.43 23.0812 23.0951 23.4509 22.7178 23.7815C22.6956 23.8011 22.6692 23.8157 22.6451 23.8325L22.6456 23.8335Z" fill="#E7E7E7"/>
<path d="M20.5761 24.7338C20.6207 24.4398 20.6625 24.2109 20.6879 23.9802C20.7006 23.8644 20.7447 23.8443 20.8488 23.868C21.0606 23.9164 21.2742 23.9556 21.5455 24.0098C21.3151 23.6989 21.1288 23.4258 20.9183 23.1728C20.8029 23.0337 20.8943 22.9877 20.9774 22.9088C21.0924 22.7998 21.1315 22.9056 21.1824 22.9726C21.4519 23.3282 21.7219 23.6839 21.9855 24.044C22.0269 24.1006 22.1441 24.1607 22.0537 24.2465C21.9641 24.3308 21.9037 24.4808 21.721 24.417C21.5437 24.355 21.3542 24.3308 21.1738 24.277C21.0388 24.2364 20.9756 24.2665 20.967 24.4138C20.957 24.5875 20.9302 24.7598 20.9197 24.9335C20.9143 25.0238 20.8856 25.0872 20.8106 25.1423C20.6647 25.249 20.5629 25.2864 20.4375 25.0899C20.1934 24.7078 19.918 24.3463 19.6512 23.9788C19.5899 23.894 19.5521 23.8307 19.6757 23.7682C19.768 23.7217 19.8362 23.6428 19.9285 23.7883C20.1212 24.0937 20.3352 24.3851 20.5761 24.7338Z" fill="#E7E7E7"/>
<path d="M7.65881 24.9792C7.68335 25.0868 7.89015 25.0781 7.7738 25.2527C7.6429 25.4488 7.54791 25.3042 7.43974 25.2523C7.32248 25.1962 7.2743 25.1378 7.36611 24.9956C7.5211 24.7544 7.71244 24.6523 7.99513 24.712C8.26783 24.7694 8.54417 24.8118 8.81732 24.8688C8.90049 24.8862 8.95685 24.8948 8.9973 24.7986C9.04593 24.6824 8.95185 24.6664 8.89322 24.6372C8.41282 24.3979 7.94469 24.1366 7.48155 23.8663C7.33793 23.7824 7.29476 23.7172 7.40838 23.5795C7.4611 23.5157 7.53609 23.4386 7.40838 23.357C7.35702 23.3242 7.46247 23.0753 7.53291 23.0771C7.65881 23.0803 7.74152 23.1833 7.83833 23.2503C7.90878 23.2987 7.89833 23.3725 7.85151 23.4304C7.74607 23.5599 7.81015 23.6224 7.93014 23.6857C8.34419 23.9041 8.75551 24.128 9.16728 24.3509C9.40544 24.4799 9.43089 24.5556 9.32817 24.8077C9.19061 25.1448 8.94882 25.2652 8.6028 25.1688C8.37055 25.1041 8.13785 25.0393 7.90605 24.9723C7.82697 24.9495 7.75062 24.9162 7.66017 24.9796L7.65881 24.9792Z" fill="#E7E7E7"/>
<path d="M26.4144 16.7038C25.9921 17.0024 25.6167 17.2682 25.2409 17.534C25.1913 17.5691 25.1441 17.6074 25.0922 17.638C24.9773 17.7064 24.8618 17.6512 24.7695 17.6006C24.6727 17.5477 24.7577 17.4524 24.7773 17.3786C24.8868 16.9696 24.9986 16.5616 25.1104 16.1531C25.1381 16.0509 25.1513 15.9461 25.3122 15.9853C25.4536 16.0199 25.4954 16.0838 25.4595 16.2224C25.384 16.5128 25.3163 16.8055 25.2368 17.1328C25.5999 16.867 25.9449 16.6331 26.2671 16.371C26.4348 16.2347 26.578 16.3094 26.7316 16.3532C26.8121 16.376 26.7816 16.4563 26.7734 16.5105C26.6957 17.0202 26.5589 17.5153 26.4066 18.0073C26.3748 18.1094 26.3221 18.1089 26.238 18.0743C26.1562 18.0406 26.0549 18.041 26.0971 17.9006C26.1803 17.6257 26.2562 17.3485 26.3316 17.0717C26.3594 16.9705 26.378 16.8675 26.4144 16.7038Z" fill="#E7E7E7"/>
<path d="M25.271 13.3611C25.1451 13.0748 25.2555 12.9284 25.5059 12.8486C25.5914 12.8213 25.6737 12.7784 25.7514 12.7319C25.8464 12.6745 26.0186 12.6654 26.025 12.5591C26.0354 12.3832 25.9841 12.2003 25.9404 12.0253C25.9182 11.9354 25.8291 11.9719 25.765 11.9847C25.5946 12.0175 25.4228 12.0453 25.2555 12.0909C25.1319 12.1246 25.0978 12.0727 25.0742 11.9664C25.0505 11.8607 25.0551 11.8041 25.1855 11.78C25.66 11.6911 26.1322 11.5903 26.604 11.4877C26.7026 11.4663 26.744 11.5019 26.7663 11.5889C26.8749 12.007 26.9703 12.4274 26.9631 12.8632C26.9594 13.0834 26.8417 13.2225 26.6395 13.2749C26.4418 13.326 26.264 13.2512 26.185 13.0657C26.115 12.9015 26.0468 12.938 25.935 13.0018C25.7196 13.1254 25.4987 13.2385 25.271 13.3611ZM26.6499 12.6818C26.6349 12.4224 26.5958 12.1766 26.5358 11.9336C26.5077 11.8196 26.4358 11.8251 26.3459 11.8484C26.2563 11.8716 26.2286 11.9085 26.2495 12.0084C26.2968 12.2377 26.3259 12.4707 26.3618 12.7018C26.3813 12.8272 26.3299 13.0255 26.5317 13.0073C26.7372 12.9891 26.6199 12.7907 26.6499 12.6818Z" fill="#E7E7E7"/>
<path d="M19.4261 9.89612C19.3616 10.161 19.2416 10.3552 19.0739 10.5303C19.1803 10.6114 19.2634 10.5139 19.3521 10.5162C19.2816 10.745 19.1494 10.8289 18.648 10.9538C18.9021 11.1558 19.133 11.0168 19.3671 10.9393C19.1075 11.2361 18.7717 11.3614 18.389 11.397C18.6144 11.6778 19.1185 11.5643 19.7261 11.0783C19.5834 11.3236 19.4248 11.4667 19.2521 11.5921C18.6785 12.0079 18.019 12.0991 17.3341 12.0836C17.2659 12.0822 17.1982 12.0713 17.1305 12.069C16.8669 12.0599 16.8346 12.1027 16.9196 12.369C16.7996 12.3015 16.6942 12.2304 16.7242 12.0923C16.7533 11.9559 16.8864 11.9523 16.9996 11.9395C17.0369 11.9354 17.075 11.9404 17.1128 11.9391C17.2886 11.9327 17.4795 12.0467 17.6386 11.9176C17.9322 11.6792 18.2804 11.4394 18.3108 11.0391C18.3531 10.4893 18.6476 10.2121 19.1225 10.0479C19.2184 10.0147 19.3062 9.95721 19.4261 9.89612Z" fill="#E7E7E7"/>
<path d="M3.37852 9.73337C3.35852 9.98959 3.27353 10.1159 3.02583 10.1706C2.38499 10.3124 2.39953 10.3311 2.195 10.9725C2.13138 11.1727 2.14774 11.3131 2.29545 11.4545C2.39362 11.5479 2.46679 11.6683 2.56815 11.7576C2.7554 11.9236 2.84812 12.1055 2.71859 12.3553C2.6286 12.3622 2.58996 12.2751 2.53679 12.2204C2.13229 11.8009 1.76096 11.3523 1.40827 10.8887C1.25102 10.6821 1.40736 10.2148 1.65552 10.1528C2.22273 10.011 2.79222 9.87562 3.37852 9.73337ZM1.87686 10.973C1.92549 10.7961 1.9673 10.637 2.01366 10.4792C2.03866 10.3931 2.00821 10.363 1.92731 10.3876C1.83868 10.4145 1.74824 10.4213 1.70824 10.544C1.64643 10.7327 1.70188 10.8572 1.87686 10.973Z" fill="#E7E7E7"/>
<path d="M1.26082 13.0446C1.26082 13.454 1.2481 13.8106 1.26628 14.1653C1.27491 14.3312 1.19719 14.3458 1.07402 14.365C0.899038 14.3923 0.940399 14.2688 0.934945 14.1812C0.908129 13.7349 0.894041 13.2876 0.939491 12.8417C0.948581 12.7515 0.889952 12.6165 1.00721 12.5814C1.13856 12.5422 1.26627 12.5846 1.36899 12.7054C1.60851 12.9886 1.86121 13.2603 2.108 13.537C2.143 13.5762 2.17527 13.6177 2.26253 13.6478C2.27889 13.3907 2.29344 13.1335 2.31252 12.8769C2.32116 12.7592 2.33343 12.6571 2.50978 12.6858C2.63658 12.7063 2.67703 12.746 2.65976 12.8696C2.60204 13.284 2.62022 13.7011 2.61658 14.1174C2.61613 14.1922 2.65522 14.2875 2.52841 14.3162C2.4207 14.3403 2.34752 14.3185 2.27435 14.2282C1.98893 13.8753 1.69532 13.5288 1.40353 13.1809C1.37126 13.1426 1.33127 13.1116 1.26082 13.0446Z" fill="#E7E7E7"/>
<path d="M25.5179 19.944C25.0371 19.8401 24.5571 19.7411 24.0799 19.6276C24.0058 19.6098 23.8345 19.6791 23.8745 19.4872C23.909 19.3221 24.0003 19.2506 24.1803 19.3066C24.3599 19.3627 24.5476 19.3924 24.7303 19.4384C24.8353 19.4648 24.888 19.4338 24.9389 19.3313C25.1611 18.8804 25.1657 18.8826 24.798 18.5302C24.7216 18.4568 24.6476 18.3802 24.5689 18.31C24.4294 18.1851 24.5412 18.0725 24.5912 17.9658C24.6203 17.9038 24.6685 17.9644 24.6971 17.9913C25.0925 18.3665 25.5116 18.7213 25.8706 19.1288C26.042 19.3231 25.7843 19.5369 25.717 19.7389C25.6874 19.8268 25.6652 19.955 25.5179 19.944ZM25.382 19.0883C25.3352 19.1845 25.2816 19.2829 25.2398 19.386C25.2193 19.4366 25.1384 19.5068 25.2507 19.5478C25.3316 19.5775 25.4184 19.6231 25.4829 19.5095C25.5738 19.349 25.6456 19.1968 25.382 19.0883Z" fill="#E7E7E7"/>
<path d="M17.1049 26.775C17.0272 26.4312 16.9472 26.118 16.8881 25.8011C16.8494 25.5928 16.7599 25.5258 16.5445 25.5663C15.9882 25.6703 15.4314 25.7742 14.8647 25.8121C14.7265 25.8212 14.6483 25.8066 14.6538 25.6429C14.6579 25.5167 14.6138 25.4063 14.8224 25.3872C15.4237 25.332 16.0191 25.2317 16.609 25.0972C16.8676 25.0384 16.9922 25.1127 17.0681 25.3703C17.1708 25.7182 17.2553 26.071 17.3594 26.4185C17.4276 26.6455 17.2176 26.646 17.1049 26.775Z" fill="#E7E7E7"/>
<path d="M26.2395 13.9747C26.4363 13.9747 26.6331 13.9788 26.8299 13.9729C26.9312 13.9702 26.9862 13.9911 26.9762 14.1092C26.9671 14.2122 26.9739 14.2993 26.8226 14.2943C26.4822 14.2825 26.1422 14.2943 25.8018 14.3189C25.6741 14.328 25.6295 14.3705 25.6391 14.4949C25.6454 14.5774 25.6363 14.6618 25.6277 14.7448C25.5965 15.0454 25.7329 15.214 26.0368 15.2508C26.284 15.2809 26.5308 15.3197 26.7785 15.3443C26.9003 15.3566 26.9226 15.415 26.918 15.5244C26.9135 15.6329 26.8803 15.6735 26.7694 15.6575C26.2908 15.5887 25.8122 15.5239 25.3337 15.456C25.2487 15.4441 25.2082 15.4067 25.2164 15.3037C25.2464 14.9262 25.2687 14.5473 25.2837 14.1689C25.2882 14.0504 25.3327 14.0135 25.4459 14.0098C25.7104 14.0012 25.9745 13.982 26.2386 13.967C26.2386 13.9692 26.239 13.972 26.2395 13.9747Z" fill="#E7E7E7"/>
<path d="M23.7106 21.842C23.6984 21.8369 23.6902 21.8356 23.6847 21.8306C23.4211 21.6044 23.1561 21.3801 22.8953 21.1503C22.8412 21.1029 22.8921 21.0541 22.9221 21.0117C23.1743 20.6534 23.4288 20.2969 23.677 19.9358C23.7325 19.8551 23.7784 19.8491 23.8602 19.8952C24.281 20.1309 24.7042 20.3634 25.1287 20.5927C25.2205 20.6424 25.2559 20.6921 25.1832 20.7815C25.1246 20.8535 25.1155 20.9976 24.955 20.9041C24.6424 20.7222 24.3178 20.5599 24.007 20.3753C23.8865 20.3037 23.8256 20.3192 23.7588 20.4355C23.6952 20.5467 23.6156 20.6484 23.5402 20.7523C23.3854 20.9648 23.411 21.1588 23.617 21.3345C23.6975 21.4029 23.7765 21.4731 23.8565 21.5424C23.9006 21.5803 23.9311 21.6217 23.8779 21.6742C23.8211 21.7303 23.7952 21.8182 23.7106 21.842Z" fill="#E7E7E7"/>
<path d="M3.49554 9.36402C3.46054 9.35034 3.42463 9.33758 3.39009 9.32253C2.97423 9.14336 2.55972 8.96053 2.14204 8.78638C2.03296 8.74124 1.98297 8.70249 2.04387 8.57529C2.10204 8.45447 2.14659 8.39702 2.29384 8.46951C2.59836 8.61905 2.91559 8.74306 3.22374 8.88485C3.31646 8.92725 3.366 8.92862 3.41827 8.82604C3.53507 8.59717 3.65824 8.37104 3.79505 8.15356C3.86822 8.03731 3.83322 7.98123 3.73369 7.92105C3.62416 7.85448 3.5219 7.77515 3.41236 7.70813C3.31283 7.6475 3.24692 7.60282 3.34146 7.46832C3.42736 7.34614 3.48599 7.33292 3.6037 7.42C3.79232 7.55905 3.99048 7.68488 4.18955 7.80889C4.28908 7.8709 4.32408 7.92105 4.25636 8.04095C4.02866 8.44216 3.81641 8.85157 3.59598 9.25688C3.5728 9.29974 3.56689 9.36448 3.49554 9.36402Z" fill="#E7E7E7"/>
<path d="M7.34228 4.57783C7.34591 4.65305 7.29137 4.67767 7.25365 4.7105C6.92278 4.99909 6.58872 5.28404 6.25966 5.57446C6.19513 5.63145 6.15377 5.63783 6.09332 5.57309C5.76199 5.21975 5.42884 4.86733 5.09342 4.51719C4.9698 4.38816 5.12569 4.35625 5.16933 4.28877C5.23205 4.19167 5.29113 4.21583 5.36158 4.29653C5.5811 4.54682 5.81289 4.78709 6.03151 5.0383C6.12241 5.14271 6.19058 5.17508 6.30466 5.0652C6.45737 4.91885 6.62053 4.78116 6.79142 4.6567C6.91414 4.56734 6.89551 4.50078 6.80688 4.40458C6.69916 4.28832 6.60781 4.15565 6.49873 4.04076C6.39783 3.93498 6.37647 3.86569 6.50736 3.75353C6.66008 3.62268 6.69825 3.74988 6.76324 3.83058C6.92914 4.03757 7.09139 4.24683 7.25456 4.45564C7.28683 4.49713 7.31637 4.5409 7.34228 4.57691V4.57783Z" fill="#E7E7E7"/>
<path d="M24.6375 7.80571C24.6552 7.86726 24.6052 7.88458 24.5679 7.90601C24.5093 7.93975 24.448 7.96892 24.3875 7.99993C23.9821 8.20691 23.9876 8.20326 24.2262 8.59125C24.2921 8.69839 24.3466 8.69383 24.4421 8.64961C24.7502 8.50782 25.067 8.38381 25.3688 8.23016C25.5351 8.14536 25.5756 8.23837 25.6365 8.35098C25.7124 8.49095 25.5928 8.49779 25.5206 8.53061C25.1229 8.71161 24.722 8.88577 24.3257 9.06996C24.2134 9.12193 24.1484 9.13561 24.0803 9.00157C23.9435 8.73258 23.7889 8.47225 23.6303 8.21557C23.5703 8.11846 23.5858 8.0747 23.6803 8.02455C23.9067 7.90418 24.1294 7.77698 24.353 7.65161C24.497 7.57091 24.6266 7.64067 24.6375 7.80571Z" fill="#E7E7E7"/>
<path d="M14.0823 26.2932C14.0823 26.4819 14.0786 26.6707 14.0836 26.8594C14.0864 26.9638 14.0541 27.0208 13.9464 27.0555C13.8259 27.0942 13.7809 27.0783 13.7909 26.9447C13.81 26.6889 13.825 26.4327 13.835 26.176C13.8478 25.8601 13.8396 25.8382 13.536 25.855C13.311 25.8678 13.2724 25.7771 13.2919 25.5829C13.3046 25.4593 13.3424 25.4174 13.4701 25.4155C14.0855 25.4064 14.0909 25.4083 14.0877 26.021C14.0873 26.1117 14.0877 26.202 14.0877 26.2927L14.0823 26.2932Z" fill="#E7E7E7"/>
<path d="M18.1794 25.4875C18.1185 25.4538 18.1094 25.3986 18.0971 25.3494C18.0549 25.1779 17.9667 25.1419 17.7999 25.2094C17.584 25.2965 17.4972 25.2276 17.4718 24.9901C17.4663 24.94 17.4668 24.8976 17.519 24.8789C17.6681 24.8264 17.8176 24.7763 17.9676 24.727C17.9808 24.7225 18.0017 24.722 18.0117 24.7298C18.1962 24.8661 18.2035 25.095 18.2926 25.281C18.348 25.3963 18.2371 25.4305 18.1794 25.4875Z" fill="#E7E7E7"/>
<path d="M23.5573 6.78084C23.5491 6.63175 23.6282 6.59665 23.7273 6.59209C23.8477 6.58707 23.9113 6.65956 23.9118 6.77217C23.9118 6.86655 23.8763 6.96138 23.7609 6.9591C23.6368 6.95682 23.5855 6.86153 23.5573 6.78084Z" fill="#E7E7E7"/>
<path d="M3.6825 20.6767C3.57296 20.6704 3.49161 20.6243 3.48615 20.5053C3.48115 20.3918 3.55705 20.3489 3.65841 20.343C3.77203 20.3366 3.85066 20.3809 3.8493 20.5062C3.84839 20.6115 3.7893 20.6704 3.6825 20.6767Z" fill="#E7E7E7"/>
<path d="M8.29526 2.5951C8.40252 2.59874 8.47569 2.63658 8.47933 2.75147C8.48342 2.87503 8.41524 2.92837 8.29889 2.92746C8.198 2.927 8.12164 2.89235 8.11937 2.77518C8.11709 2.65345 8.18527 2.60057 8.29526 2.5951Z" fill="#E7E7E7"/>
<path d="M19.1966 25.2308C19.1212 25.224 19.0316 25.188 19.0321 25.079C19.0321 24.9755 19.0862 24.8843 19.208 24.8843C19.3243 24.8843 19.3843 24.9546 19.3875 25.0708C19.3907 25.1857 19.327 25.2327 19.1966 25.2308Z" fill="#E7E7E7"/>
<path d="M22.2141 4.91705C22.285 4.92161 22.3323 4.9672 22.3291 5.05929C22.3259 5.15139 22.2773 5.19789 22.1859 5.18923C22.105 5.18148 22.0373 5.1482 22.0477 5.05109C22.0568 4.96765 22.1036 4.91477 22.2141 4.91705Z" fill="#E7E7E7"/>
<path d="M13.2477 8.00362C13.1032 7.97308 12.9591 7.94162 12.8141 7.9129C12.7705 7.90423 12.7423 7.88326 12.7532 7.83904C12.7601 7.81259 12.781 7.78387 12.8037 7.76883C12.8923 7.71001 12.8323 7.81442 12.8623 7.82445C12.9941 7.86958 13.1255 7.91609 13.2573 7.96213C13.2541 7.97581 13.2509 7.98995 13.2477 8.00362Z" fill="#E7E7E7"/>
<path d="M14.8135 6.04542C14.7917 6.03448 14.7644 6.02946 14.7567 6.01442C14.7485 5.99892 14.7517 5.96472 14.764 5.95378C14.8685 5.85485 14.9908 5.78145 15.1267 5.73677C15.1571 5.72674 15.183 5.77324 15.1639 5.79877C15.0753 5.91822 14.933 5.96336 14.8135 6.04542Z" fill="#E7E7E7"/>
<path d="M15.2993 5.97157C15.3043 6.04178 15.2729 6.0933 15.2311 6.11427C15.1398 6.16077 15.0998 6.36822 14.9925 6.26974C14.9248 6.20773 15.0957 6.10287 15.1657 6.02263C15.1939 5.99026 15.2316 5.95926 15.2993 5.97157Z" fill="#E7E7E7"/>
<path d="M16.7213 6.33999C16.8435 6.48725 16.8099 6.65549 16.8672 6.79317C16.8708 6.80184 16.8467 6.83101 16.8303 6.83831C16.7894 6.85563 16.7785 6.81323 16.7713 6.79181C16.7253 6.65503 16.6754 6.51734 16.7213 6.33999Z" fill="#E7E7E7"/>
<path d="M17.4032 6.56935C17.311 6.42802 17.1628 6.31449 17.1687 6.09292C17.2942 6.25158 17.4114 6.37878 17.4032 6.56935Z" fill="#E7E7E7"/>
<path d="M16.9407 6.26112C17.0466 6.2985 17.0375 6.402 17.072 6.48042C17.1075 6.56066 17.1556 6.63543 17.2002 6.71612C17.0207 6.68239 16.9379 6.53376 16.9407 6.26112Z" fill="#E7E7E7"/>
<path d="M16.4886 6.3892C16.5859 6.5351 16.5468 6.68372 16.559 6.82916C16.5618 6.86244 16.5431 6.8857 16.5059 6.88296C16.4681 6.88022 16.4563 6.8515 16.4581 6.8205C16.4668 6.67643 16.4781 6.53282 16.4886 6.3892Z" fill="#E7E7E7"/>
<path d="M14.5401 5.72352C14.6864 5.56121 14.8528 5.57398 15.0023 5.53933C14.8659 5.61637 14.7455 5.73035 14.5401 5.72352Z" fill="#E7E7E7"/>
<path d="M16.0446 6.31579C16.0678 6.51548 15.9828 6.65635 15.9619 6.80817C15.9573 6.83963 15.9333 6.86288 15.8974 6.85149C15.8528 6.83735 15.8383 6.80863 15.8683 6.76714C15.9578 6.64359 15.9546 6.48174 16.0446 6.31579Z" fill="#E7E7E7"/>
<path d="M15.7804 6.24509C15.7854 6.44114 15.7126 6.55968 15.5786 6.6773C15.5622 6.48582 15.6754 6.38688 15.7804 6.24509Z" fill="#E7E7E7"/>
<path d="M16.2206 6.88155C16.177 6.6773 16.2424 6.53232 16.267 6.36363C16.3343 6.48399 16.3283 6.54509 16.2206 6.88155Z" fill="#E7E7E7"/>
</svg>
